<?xml version="1.0" encoding="UTF-8" standalone="no"?>
<svg width="373px" height="488px" viewBox="0 0 373 488" version="1.1" xmlns="http://www.w3.org/2000/svg" xmlns:xlink="http://www.w3.org/1999/xlink" xmlns:sketch="http://www.bohemiancoding.com/sketch/ns">
    <title>ErlenmeyerBubbles</title>
    <description>Created with Sketch (http://www.bohemiancoding.com/sketch)</description>
    <defs></defs>
    <g id="Page 1" fill="rgb(215,215,215)" fill-rule="evenodd">
        <path d="M229.006442,29.0446353 C226.276659,32.5147204 224.063733,38.8996066 224.063733,43.3277704 L224.063733,113.026271 C224.063733,119.656279 225.88604,130.079214 228.13576,136.31151 L341.753324,451.060969 C342.503031,453.137848 343.10533,456.619956 342.926577,458.805681 C342.926577,458.805681 343.796159,465.318419 336.664933,473.771284 C329.533706,482.224149 323.444554,482.553557 323.444554,482.553557 C320.783551,483.266038 316.395789,483.846734 313.632638,483.850514 C313.632638,483.850514 71.7542062,484.195477 60.8202942,483.843619 C49.8863823,483.491761 44.2214256,480.143644 39.6581312,474.866294 C35.0948368,469.588943 36.0922745,459.378561 36.0922745,459.378561 C36.1588619,457.173331 36.8035892,453.70493 37.5378222,451.615997 L147.121221,139.845233 C149.319159,133.591978 151.10094,123.143391 151.10094,116.529813 L151.10094,43.3334128 C151.10094,38.9116745 148.73727,32.64267 145.815218,29.3240249 L128.803253,10.0031225 C125.884029,6.68768951 127.095833,4 131.515293,4 L240.710332,4 C245.127373,4 246.499382,6.80770161 243.765385,10.2831448 L229.006442,29.0446353 Z M229.006442,29.0446353" id="Path 1 copy" stroke="rgb(56,254,59)" stroke-width="8" fill="rgb(254,254,254)"></path>
        <path d="M93.002929,336.854492 C93.002929,336.854492 92.5305714,338.110424 91.9465031,339.663378 L53.1688592,442.767596 C50.8357195,448.971082 50.017269,459.263183 50.3779297,461.318848 C50.3779297,461.318848 49.5527346,456.453125 50.3779297,461.318848 C51.2031252,466.18457 51.1760034,464.260412 51.1760034,464.260412 C52.8410949,467.106695 56.8777342,469.414062 60.193627,469.414062 L307.770535,469.414062 C307.770535,469.414062 316.043319,470.126291 320.445312,463.159409 C324.847306,456.192528 321.585938,447.54891 321.585938,447.54891 L286.220434,337.852568 C285.712524,336.277138 283.958801,334.992875 282.304369,334.98409 L96.9599609,334 L95.0473633,335.170898 L93.71875,336.255859" id="Path 3" fill="rgb(25,126,250)"></path>
        <path d="M131,452 C150.329967,452 166,436.329967 166,417 C166,397.670033 150.329967,382 131,382 C111.670033,382 96,397.670033 96,417 C96,436.329967 111.670033,452 131,452 Z M131,452" id="Oval 1 copy 2" stroke="rgb(25,126,250)" stroke-width="4" fill="rgb(254,254,254)"></path>
        <path d="M197.5,357 C206.612699,357 214,349.612699 214,340.5 C214,331.387301 206.612699,324 197.5,324 C188.387301,324 181,331.387301 181,340.5 C181,349.612699 188.387301,357 197.5,357 Z M197.5,357" id="Oval 1 copy 3" stroke="rgb(25,126,250)" stroke-width="4" fill="rgb(254,254,254)"></path>
        <path d="M251,445 C264.807119,445 276,433.807119 276,420 C276,406.192881 264.807119,395 251,395 C237.192881,395 226,406.192881 226,420 C226,433.807119 237.192881,445 251,445 Z M251,445" id="Oval 1 copy 4" stroke="rgb(25,126,250)" stroke-width="4" fill="rgb(254,254,254)"></path>
        <path d="M30.6777344,302.214844 L3.67773438,302.214844 L3.67773438,299.214844 L0.677734375,299.214844 L0.677734375,275.214844 L3.67773438,275.214844 L3.67773438,272.214844 L30.6777344,272.214844 L30.6777344,278.214844 L12.6777344,278.214844 L12.6777344,284.214844 L21.6777344,284.214844 L21.6777344,290.214844 L12.6777344,290.214844 L12.6777344,296.214844 L30.6777344,296.214844 Z M66.6777344,290.214844 L66.6777344,302.214844 L54.6777344,302.214844 L54.6777344,290.214844 L48.6777344,290.214844 L48.6777344,302.214844 L36.6777344,302.214844 L36.6777344,272.214844 L63.6777344,272.214844 L63.6777344,275.214844 L66.6777344,275.214844 L66.6777344,284.214844 L63.6777344,284.214844 L63.6777344,290.214844 Z M48.6777344,284.214844 L54.6777344,284.214844 L54.6777344,278.214844 L48.6777344,278.214844 Z M102.677734,302.214844 L72.6777344,302.214844 L72.6777344,272.214844 L84.6777344,272.214844 L84.6777344,296.214844 L102.677734,296.214844 Z M138.677734,302.214844 L111.677734,302.214844 L111.677734,299.214844 L108.677734,299.214844 L108.677734,275.214844 L111.677734,275.214844 L111.677734,272.214844 L138.677734,272.214844 L138.677734,278.214844 L120.677734,278.214844 L120.677734,284.214844 L129.677734,284.214844 L129.677734,290.214844 L120.677734,290.214844 L120.677734,296.214844 L138.677734,296.214844 Z M174.677734,302.214844 L162.677734,302.214844 L162.677734,278.214844 L156.677734,278.214844 L156.677734,302.214844 L144.677734,302.214844 L144.677734,272.214844 L171.677734,272.214844 L171.677734,275.214844 L174.677734,275.214844 Z M228.677734,302.214844 L216.677734,302.214844 L216.677734,278.214844 L210.677734,278.214844 L210.677734,302.214844 L198.677734,302.214844 L198.677734,278.214844 L192.677734,278.214844 L192.677734,302.214844 L180.677734,302.214844 L180.677734,272.214844 L225.677734,272.214844 L225.677734,275.214844 L228.677734,275.214844 Z M264.677734,302.214844 L237.677734,302.214844 L237.677734,299.214844 L234.677734,299.214844 L234.677734,275.214844 L237.677734,275.214844 L237.677734,272.214844 L264.677734,272.214844 L264.677734,278.214844 L246.677734,278.214844 L246.677734,284.214844 L255.677734,284.214844 L255.677734,290.214844 L246.677734,290.214844 L246.677734,296.214844 L264.677734,296.214844 Z M300.677734,287.214844 L297.677734,287.214844 L297.677734,290.214844 L291.677734,290.214844 L291.677734,302.214844 L279.677734,302.214844 L279.677734,290.214844 L273.677734,290.214844 L273.677734,287.214844 L270.677734,287.214844 L270.677734,272.214844 L282.677734,272.214844 L282.677734,284.214844 L288.677734,284.214844 L288.677734,272.214844 L300.677734,272.214844 Z M336.677734,302.214844 L309.677734,302.214844 L309.677734,299.214844 L306.677734,299.214844 L306.677734,275.214844 L309.677734,275.214844 L309.677734,272.214844 L336.677734,272.214844 L336.677734,278.214844 L318.677734,278.214844 L318.677734,284.214844 L327.677734,284.214844 L327.677734,290.214844 L318.677734,290.214844 L318.677734,296.214844 L336.677734,296.214844 Z M372.677734,302.214844 L360.677734,302.214844 L360.677734,290.214844 L354.677734,290.214844 L354.677734,302.214844 L342.677734,302.214844 L342.677734,272.214844 L369.677734,272.214844 L369.677734,275.214844 L372.677734,275.214844 L372.677734,284.214844 L369.677734,284.214844 L369.677734,290.214844 L372.677734,290.214844 Z M354.677734,284.214844 L360.677734,284.214844 L360.677734,278.214844 L354.677734,278.214844 Z M354.677734,284.214844" id="" fill="rgb(0,0,0)"></path>
    </g>
</svg>