<?xml version="1.0" encoding="UTF-8" standalone="no"?>
<svg width="374px" height="488px" version="1.1" xmlns="http://www.w3.org/2000/svg" xmlns:xlink="http://www.w3.org/1999/xlink" xmlns:sketch="http://www.bohemiancoding.com/sketch/ns">
    <title>ErlenmeyerBubbles</title>
    <description>Created with Sketch (http://www.bohemiancoding.com/sketch)</description>
    <defs></defs>
    <g id="Page 1" fill="rgb(223,223,223)" fill-rule="evenodd">
        <path d="M229.006442,29.0446353 C226.276659,32.5147204 224.063733,38.8996066 224.063733,43.3277704 L224.063733,113.026271 C224.063733,119.656279 225.88604,130.079214 228.13576,136.31151 L341.753324,451.060969 C342.503031,453.137848 343.10533,456.619956 342.926577,458.805681 C342.926577,458.805681 343.796159,465.318419 336.664933,473.771284 C329.533706,482.224149 323.444554,482.553557 323.444554,482.553557 C320.783551,483.266038 316.395789,483.846734 313.632638,483.850514 C313.632638,483.850514 71.7542062,484.195477 60.8202942,483.843619 C49.8863823,483.491761 44.2214256,480.143644 39.6581312,474.866294 C35.0948368,469.588943 36.0922745,459.378561 36.0922745,459.378561 C36.1588619,457.173331 36.8035892,453.70493 37.5378222,451.615997 L147.121221,139.845233 C149.319159,133.591978 151.10094,123.143391 151.10094,116.529813 L151.10094,43.3334128 C151.10094,38.9116745 148.73727,32.64267 145.815218,29.3240249 L128.803253,10.0031225 C125.884029,6.68768951 127.095833,4 131.515293,4 L240.710332,4 C245.127373,4 246.499382,6.80770161 243.765385,10.2831448 L229.006442,29.0446353 Z M229.006442,29.0446353" id="Path 1 copy" stroke="rgb(56,249,75)" stroke-width="8" fill="rgb(254,254,254)"></path>
        <path d="M93.002929,336.854492 C93.002929,336.854492 92.5305714,338.110424 91.9465031,339.663378 L53.1688592,442.767596 C50.8357195,448.971082 50.017269,459.263183 50.3779297,461.318848 C50.3779297,461.318848 49.5527346,456.453125 50.3779297,461.318848 C51.2031252,466.18457 51.1760034,464.260412 51.1760034,464.260412 C52.8410949,467.106695 56.8777342,469.414062 60.193627,469.414062 L307.770535,469.414062 C307.770535,469.414062 316.043319,470.126291 320.445312,463.159409 C324.847306,456.192528 321.585938,447.54891 321.585938,447.54891 L286.220434,337.852568 C285.712524,336.277138 283.958801,334.992875 282.304369,334.98409 L96.9599609,334 L95.0473633,335.170898 L93.71875,336.255859" id="Path 3" fill="rgb(24,149,251)"></path>
        <text id="" fill="rgb(0,0,0)" font-family="8BIT WONDER" font-size="36" font-weight="normal" sketch:alignment="middle">
            <tspan x="190.677734" y="194.214844"></tspan>
            <tspan x="190.677734" y="230.214844"></tspan>
            <tspan x="190.677734" y="266.214844"></tspan>
            <tspan x="1.67773438" y="302.214844">Erlenmeyer</tspan>
        </text>
        <path d="M131,452 C150.329967,452 166,436.329967 166,417 C166,397.670033 150.329967,382 131,382 C111.670033,382 96,397.670033 96,417 C96,436.329967 111.670033,452 131,452 Z M131,452" id="Oval 1 copy 2" stroke="rgb(24,149,251)" stroke-width="4" fill="rgb(254,254,254)"></path>
        <path d="M197.5,357 C206.612699,357 214,349.612699 214,340.5 C214,331.387301 206.612699,324 197.5,324 C188.387301,324 181,331.387301 181,340.5 C181,349.612699 188.387301,357 197.5,357 Z M197.5,357" id="Oval 1 copy 3" stroke="rgb(24,149,251)" stroke-width="4" fill="rgb(254,254,254)"></path>
        <path d="M251,445 C264.807119,445 276,433.807119 276,420 C276,406.192881 264.807119,395 251,395 C237.192881,395 226,406.192881 226,420 C226,433.807119 237.192881,445 251,445 Z M251,445" id="Oval 1 copy 4" stroke="rgb(24,149,251)" stroke-width="4" fill="rgb(254,254,254)"></path>
        <path d="M196.384576,194.214844 C204.239614,181.659239 192.475098,161.520555 196.384576,139.214844 C200.717972,114.490448 166.573362,56.847853 181.089396,23.421875 C208.701424,-40.1601565 199.495755,1.31249165 220.242527,-59.5664062 C240.989299,-120.445312 220.242529,-120.902344 220.242529,-120.902344 C220.242529,-120.902344 185.983636,55.3570078 172.072483,139.214844 C160.487292,209.051532 168.37637,189.066409 172.072483,189.066406 C180.206781,189.066406 205.443959,-77.8320294 224.164547,-60.265625 C242.885135,-42.6992188 198.118515,57.7890625 198.118515,57.7890625 L190.892268,-110.933594 L198.118515,-30.9335938" id="Path 10"></path>
        <path d="M166.230046,160.812905 C185.753209,148.09042 156.513304,127.684067 166.230046,105.081885 C177.000408,80.0288698 92.1362949,21.6201314 128.214912,-12.2501205 C196.842735,-76.6772384 173.962669,-34.6533658 225.527365,-96.341422 C277.092059,-158.029487 225.527368,-158.492592 225.527368,-158.492592 C225.527368,-158.492592 140.379215,20.109471 105.803988,105.081885 C77.00978,175.846791 96.6175479,155.596041 105.803988,155.596038 C126.021234,155.596038 188.746528,-114.849819 235.275279,-97.0499343 C281.804031,-79.250048 170.539634,22.5738508 170.539634,22.5738508 L152.579285,-148.391345 L170.539634,-67.3280429" id="Path 10 copy" transform="translate(169.578125, 1.16015625) rotate(-18) translate(-169.578125, -1.16015625)"></path>
        <path d="M184.284731,161.785188 C197.491487,148.999853 177.711685,128.492692 184.284731,105.778855 C191.570515,80.6020771 134.162827,21.904798 158.568785,-12.1327739 C204.993175,-76.8781634 189.515588,-34.6466918 224.397352,-96.6394886 C259.279114,-158.632294 224.397354,-159.097688 224.397354,-159.097688 C224.397354,-159.097688 166.797523,20.3866749 143.408557,105.778855 C123.930254,176.893342 137.194242,156.542552 143.408557,156.542549 C157.084836,156.542549 199.516365,-115.239317 230.991484,-97.351501 C262.466603,-79.4636828 187.20002,22.8632288 187.20002,22.8632288 L175.050455,-148.94654 L187.20002,-67.4827826" id="Path 10 copy" transform="translate(186.549592, 1.34375) rotate(-8) translate(-186.549592, -1.34375)"></path>
    </g>
</svg>